HIERARCHY
ROOT joint_Root
{
	OFFSET 0.0 0.0 0.0
	CHANNELS 6 Xposition Yposition Zposition Zrotation Xrotation Yrotation 
	JOINT Hips
	{
		OFFSET 4.5925 91.4895 -427.239
		CHANNELS 6 Xposition Yposition Zposition Zrotation Xrotation Yrotation 
		JOINT Spine
		{
			OFFSET 15.7357 0.0 0.0
			CHANNELS 6 Xposition Yposition Zposition Zrotation Xrotation Yrotation 
			JOINT Chest
			{
				OFFSET 8.98455 -0.406207 0.0
				CHANNELS 6 Xposition Yposition Zposition Zrotation Xrotation Yrotation 
				JOINT Neck
				{
					OFFSET 16.3773 0.0 0.0
					CHANNELS 6 Xposition Yposition Zposition Zrotation Xrotation Yrotation 
					JOINT Head
					{
						OFFSET 6.45672 0.0 0.0
						CHANNELS 6 Xposition Yposition Zposition Zrotation Xrotation Yrotation 
						End Site
						{
							OFFSET 0.0 0.0 0.0
						}
					}
				}
				JOINT Shoulder_L
				{
					OFFSET 12.9942 -0.242716 4.98039
					CHANNELS 6 Xposition Yposition Zposition Zrotation Xrotation Yrotation 
					JOINT UpperArm_L
					{
						OFFSET 5.34809 0.0 0.0
						CHANNELS 6 Xposition Yposition Zposition Zrotation Xrotation Yrotation 
						JOINT LowerArm_L
						{
							OFFSET 24.3286 1.87007e-05 0.0
							CHANNELS 6 Xposition Yposition Zposition Zrotation Xrotation Yrotation 
							JOINT Hand_L
							{
								OFFSET 22.2916 0.0 0.0
								CHANNELS 6 Xposition Yposition Zposition Zrotation Xrotation Yrotation 
								End Site
								{
									OFFSET 0.0 0.0 0.0
								}
							}
						}
					}
				}
				JOINT Shoulder_R
				{
					OFFSET 12.9945 -0.242716 -4.98039
					CHANNELS 6 Xposition Yposition Zposition Zrotation Xrotation Yrotation 
					JOINT UpperArm_R
					{
						OFFSET -5.34813 0.0 0.0
						CHANNELS 6 Xposition Yposition Zposition Zrotation Xrotation Yrotation 
						JOINT LowerArm_R
						{
							OFFSET -24.3289 0.000322201 0.0
							CHANNELS 6 Xposition Yposition Zposition Zrotation Xrotation Yrotation 
							JOINT Hand_R
							{
								OFFSET -22.2915 -0.000108084 0.0
								CHANNELS 6 Xposition Yposition Zposition Zrotation Xrotation Yrotation 
								End Site
								{
									OFFSET 0.0 0.0 0.0
								}
							}
						}
					}
				}
			}
		}
		JOINT UpperLeg_L
		{
			OFFSET -2.19248 -6.46944 0.0
			CHANNELS 6 Xposition Yposition Zposition Zrotation Xrotation Yrotation 
			JOINT LowerLeg_L
			{
				OFFSET 39.0811 0.0 -1.23785e-05
				CHANNELS 6 Xposition Yposition Zposition Zrotation Xrotation Yrotation 
				JOINT Foot_L
				{
					OFFSET 40.9854 0.0 -1.26872e-05
					CHANNELS 6 Xposition Yposition Zposition Zrotation Xrotation Yrotation 
					JOINT Toes_L
					{
						OFFSET 11.7543 0.0 0.0
						CHANNELS 6 Xposition Yposition Zposition Zrotation Xrotation Yrotation 
						End Site
						{
							OFFSET 0.0 0.0 0.0
						}
					}
				}
			}
		}
		JOINT UpperLeg_R
		{
			OFFSET -2.19251 6.46944 0.0
			CHANNELS 6 Xposition Yposition Zposition Zrotation Xrotation Yrotation 
			JOINT LowerLeg_R
			{
				OFFSET -39.0811 -0.00228153 -0.0401928
				CHANNELS 6 Xposition Yposition Zposition Zrotation Xrotation Yrotation 
				JOINT Foot_R
				{
					OFFSET -40.9854 0.0 0.0
					CHANNELS 6 Xposition Yposition Zposition Zrotation Xrotation Yrotation 
					JOINT Toes_R
					{
						OFFSET -11.7543 0.0 0.0
						CHANNELS 6 Xposition Yposition Zposition Zrotation Xrotation Yrotation 
						End Site
						{
							OFFSET 0.0 0.0 0.0
						}
					}
				}
			}
		}
	}
}
MOTION
Frames:	8
Frame Time:	0.0333333
0.000000 0.000000 0.000000 0.000000 0.000000 -0.000000 -0.225439 89.869400 428.168000 -87.422600 17.187600 166.088000 15.735700 0.000005 -0.000001 122.947000 80.047400 -126.016000 8.984550 -0.406207 -0.000000 9.356850 10.724800 -7.027340 16.377300 -0.000001 -0.000001 -1.739010 -2.249410 0.843589 6.456720 -0.000001 -0.000000 -6.629350 -6.727050 0.256378 12.994200 -0.242716 4.980390 -89.138000 -2.615920 -71.765100 5.348090 -0.000007 -0.000001 -61.979900 4.752510 37.541600 24.328600 0.000019 0.000005 15.088600 14.534800 -47.064400 22.291600 -0.000001 0.000005 3.087940 5.491180 -6.191010 12.994500 -0.242716 -4.980390 89.774600 3.026140 -85.744700 -5.348130 -0.000001 -0.000004 -57.812000 26.411600 -47.574200 -24.328900 0.000322 -0.000009 -12.538900 -0.031002 -89.932900 -22.291500 -0.000108 -0.000004 18.274500 5.595740 -11.055400 -2.192480 -6.469440 -0.000000 176.989000 -14.389700 -41.597600 39.081100 -0.000007 -0.000012 0.419470 -0.596625 35.110900 40.985400 -0.000006 -0.000013 1.170690 -7.924440 -69.166800 11.754300 -0.000000 0.000003 -0.006235 -0.072964 -19.546500 -2.192510 6.469440 -0.000001 166.940000 5.801900 -174.195000 -39.081100 -0.002282 -0.040193 0.441299 -0.309554 54.754500 -40.985400 0.000008 0.000006 0.977894 10.600400 -21.481800 -11.754300 -0.000006 -0.000006 -0.011851 -0.116983 -21.341800
0.000000 0.000000 0.000000 0.000000 0.000000 -0.000000 -0.778906 86.538700 421.402000 -88.808100 14.924500 164.662000 15.735700 0.000005 -0.000001 114.833000 81.822600 -118.194000 8.984550 -0.406207 -0.000000 7.327150 6.856720 -7.161020 16.377300 -0.000001 -0.000001 -2.096060 -1.440260 0.270777 6.456720 -0.000001 -0.000000 -6.413920 -5.231610 1.338390 12.994200 -0.242716 4.980390 -90.609600 1.938220 -72.523100 5.348090 -0.000007 -0.000001 -61.394900 -1.167160 30.423900 24.328600 0.000019 0.000005 11.587000 8.750470 -53.447500 22.291600 -0.000001 0.000005 5.880420 5.487410 -6.037410 12.994500 -0.242716 -4.980390 89.369500 7.584440 -85.234300 -5.348130 -0.000001 -0.000004 -62.895700 29.689300 -34.531700 -24.328900 0.000322 -0.000009 -19.491900 -5.854680 -73.944100 -22.291500 -0.000108 -0.000004 18.035100 5.596530 -11.096200 -2.192480 -6.469440 -0.000000 174.219000 -14.149500 -47.390200 39.081100 -0.000007 -0.000012 0.218899 -0.195959 48.164800 40.985400 -0.000006 -0.000013 1.819900 -6.445790 -67.473700 11.754300 -0.000000 0.000003 -0.003794 -0.049288 -18.581600 -2.192510 6.469440 -0.000001 167.688000 5.496920 174.557000 -39.081100 -0.002282 -0.040193 0.671398 -0.154655 76.973000 -40.985400 0.000008 0.000006 -2.811580 9.365900 -14.150800 -11.754300 -0.000006 -0.000006 -0.011765 -0.116384 -21.317300
0.000000 0.000000 0.000000 0.000000 0.000000 -0.000000 -1.515430 83.105900 414.944000 -92.926400 10.661800 167.812000 15.735700 0.000005 -0.000001 96.611000 81.710100 -100.645000 8.984550 -0.406207 -0.000000 8.785770 1.862950 -8.204160 16.377300 -0.000001 -0.000001 -2.968100 -1.211670 0.175054 6.456720 -0.000001 -0.000000 -6.246870 -3.893880 1.664320 12.994200 -0.242716 4.980390 -91.737400 6.008570 -73.829800 5.348090 -0.000007 -0.000001 -63.304200 -4.092070 16.959700 24.328600 0.000019 0.000005 9.603480 5.132900 -62.141700 22.291600 -0.000001 0.000005 5.774180 5.500770 -6.564250 12.994500 -0.242716 -4.980390 89.114300 11.344600 -85.506600 -5.348130 -0.000001 -0.000004 -67.143000 25.230100 -20.583600 -24.328900 0.000322 -0.000009 -18.666600 -13.333000 -55.711400 -22.291500 -0.000108 -0.000004 14.301800 5.580980 -10.260100 -2.192480 -6.469440 -0.000000 171.330000 -9.232810 -45.461300 39.081100 -0.000007 -0.000012 -0.359618 0.216655 58.933600 40.985400 -0.000006 -0.000013 1.748320 -6.497710 -77.367200 11.754300 -0.000000 0.000003 -0.000011 -0.000142 -16.583100 -2.192510 6.469440 -0.000001 166.423000 5.933580 164.604000 -39.081100 -0.002282 -0.040193 0.698175 0.119809 99.789500 -40.985400 0.000008 0.000006 -4.535940 9.354780 -7.512410 -11.754300 -0.000006 -0.000006 -0.010885 -0.110139 -21.061600
0.000000 0.000000 0.000000 0.000000 0.000000 -0.000000 -2.460630 80.260300 408.374000 -95.899200 8.097570 170.647000 15.735700 0.000005 -0.000001 90.653200 80.738200 -95.111600 8.984550 -0.406207 -0.000000 10.775600 0.092077 -8.920800 16.377300 -0.000001 -0.000001 -3.391890 -2.615470 0.006235 6.456720 -0.000001 -0.000000 -5.732180 -3.557530 2.454400 12.994200 -0.242716 4.980390 -92.167300 8.627990 -75.841200 5.348090 -0.000007 -0.000001 -65.825000 1.721120 -5.080600 24.328600 0.000019 0.000005 7.737430 2.938850 -69.326800 22.291600 -0.000001 0.000005 5.779520 5.530630 -7.822770 12.994500 -0.242716 -4.980390 88.784000 12.078100 -84.207100 -5.348130 -0.000001 -0.000004 -65.172300 25.178600 -10.311900 -24.328900 0.000322 -0.000009 -17.104300 -26.147300 -34.928900 -22.291500 -0.000108 -0.000004 16.357800 5.489030 -6.063400 -2.192480 -6.469440 -0.000000 168.347000 -5.988210 -40.691200 39.081100 -0.000007 -0.000012 -0.542126 0.247972 65.421500 40.985400 -0.000006 -0.000013 1.447840 -7.832350 -85.899200 11.754300 -0.000000 0.000003 -0.000139 -0.001359 -16.629300 -2.192510 6.469440 -0.000001 165.209000 4.288390 151.264000 -39.081100 -0.002282 -0.040193 0.450865 0.246758 118.879000 -40.985400 0.000008 0.000006 -5.827360 8.875290 -2.489380 -11.754300 -0.000006 -0.000006 -0.010462 -0.107056 -20.935500
0.000000 0.000000 0.000000 0.000000 0.000000 -0.000000 -2.605320 78.326100 401.677000 -96.262500 3.600120 171.984000 15.735700 0.000005 -0.000001 83.725700 80.109700 -87.630800 8.984550 -0.406207 -0.000000 11.836400 -2.282150 -7.571860 16.377300 -0.000001 -0.000001 -3.490180 -3.184070 -0.131339 6.456720 -0.000001 -0.000000 -4.583010 -3.378760 3.763800 12.994200 -0.242716 4.980390 -91.296600 6.188760 -78.158400 5.348090 -0.000007 -0.000001 -66.131600 8.993730 -28.423800 24.328600 0.000019 0.000005 11.433900 2.698500 -76.884900 22.291600 -0.000001 0.000005 4.202020 5.541110 -8.297860 12.994500 -0.242716 -4.980390 88.653000 11.211100 -83.102200 -5.348130 -0.000001 -0.000004 -64.249000 22.422600 3.129470 -24.328900 0.000322 -0.000009 -3.267940 -10.714300 -17.026600 -22.291500 -0.000108 -0.000004 8.039650 5.468540 -5.330900 -2.192480 -6.469440 -0.000000 168.501000 -3.278810 -34.581900 39.081100 -0.000007 -0.000012 -0.550761 0.217463 68.455000 40.985400 -0.000006 -0.000013 1.516030 -7.036100 -92.971000 11.754300 -0.000000 0.000003 -0.000228 -0.002069 -16.655300 -2.192510 6.469440 -0.000001 167.014000 5.337420 136.624000 -39.081100 -0.002282 -0.040193 0.281541 0.238845 130.656000 -40.985400 0.000008 0.000006 -5.857390 6.539160 1.371520 -11.754300 -0.000006 -0.000006 -0.010914 -0.110346 -21.070100
0.000000 0.000000 0.000000 0.000000 0.000000 -0.000000 -1.877980 78.204700 393.920000 -94.431400 -2.795870 171.909000 15.735700 0.000005 -0.000001 72.394000 79.657700 -74.633800 8.984550 -0.406207 -0.000000 11.881300 -6.282720 -3.827050 16.377300 -0.000001 -0.000001 -3.590440 -3.479780 -1.180780 6.456720 -0.000001 -0.000000 -4.671590 -1.211340 3.862400 12.994200 -0.242716 4.980390 -89.954800 -0.293833 -81.103100 5.348090 -0.000007 -0.000001 -63.391500 10.190300 -45.872300 24.328600 0.000019 0.000005 11.006800 0.576995 -87.060100 22.291600 -0.000001 0.000005 3.846770 5.532970 -7.927850 12.994500 -0.242716 -4.980390 87.930600 10.147400 -78.409300 -5.348130 -0.000001 -0.000004 -60.114400 26.597300 16.095000 -24.328900 0.000322 -0.000009 -0.772343 -2.391750 -17.816000 -22.291500 -0.000108 -0.000004 5.531260 5.497260 -6.419860 -2.192480 -6.469440 -0.000000 172.705000 -2.733320 -26.154100 39.081100 -0.000007 -0.000012 -0.500079 0.226818 65.603700 40.985400 -0.000006 -0.000013 2.994750 -2.221820 -97.749900 11.754300 -0.000000 0.000003 -0.000196 -0.001823 -16.646300 -2.192510 6.469440 -0.000001 172.590000 8.146860 125.484000 -39.081100 -0.002282 -0.040193 0.133654 0.120425 132.762000 -40.985400 0.000008 0.000006 -5.379960 7.018640 -1.838900 -11.754300 -0.000006 -0.000006 -0.013585 -0.128716 -21.822600
0.000000 0.000000 0.000000 0.000000 0.000000 -0.000000 -0.613986 80.572000 385.087000 -90.650000 -7.501020 170.095000 15.735700 0.000005 -0.000001 58.233400 79.371700 -58.503600 8.984550 -0.406207 -0.000000 10.424100 -11.121700 0.476335 16.377300 -0.000001 -0.000001 -3.161650 -2.290900 -1.842420 6.456720 -0.000001 -0.000000 -4.401720 2.034470 3.029070 12.994200 -0.242716 4.980390 -89.095400 -6.391870 -81.928200 5.348090 -0.000007 -0.000001 -58.881500 3.864240 -54.206100 24.328600 0.000019 0.000005 9.171170 -1.309980 -98.056700 22.291600 -0.000001 0.000005 3.514680 5.520120 -7.365920 12.994500 -0.242716 -4.980390 87.734300 8.355990 -74.763000 -5.348130 -0.000001 -0.000004 -54.584900 27.439800 24.065800 -24.328900 0.000322 -0.000009 -3.570670 -8.331150 -23.287300 -22.291500 -0.000108 -0.000004 2.421940 5.508420 -6.887440 -2.192480 -6.469440 -0.000000 -179.864000 -2.959320 -15.569600 39.081100 -0.000007 -0.000012 -0.490089 0.370154 52.938200 40.985400 -0.000006 -0.000013 3.523650 3.255890 -97.718300 11.754300 -0.000000 0.000003 -0.000011 -0.000150 -16.583400 -2.192510 6.469440 -0.000001 -179.479000 7.691220 118.252000 -39.081100 -0.002282 -0.040193 -0.002904 -0.004579 125.722000 -40.985400 0.000008 0.000006 -2.625750 7.284410 -13.283300 -11.754300 -0.000006 -0.000006 -0.014782 -0.136439 -22.139400
0.000000 0.000000 0.000000 0.000000 0.000000 -0.000000 0.473591 84.811300 375.640000 -86.606600 -9.460350 166.921000 15.735700 0.000005 -0.000001 47.367300 79.667400 -45.595700 8.984550 -0.406207 -0.000000 7.832760 -13.940200 4.512260 16.377300 -0.000001 -0.000001 -2.328370 -1.514050 -2.187690 6.456720 -0.000001 -0.000000 -3.571860 5.048540 1.678110 12.994200 -0.242716 4.980390 -88.444800 -10.741500 -81.713200 5.348090 -0.000007 -0.000001 -55.158300 -0.940442 -55.371100 24.328600 0.000019 0.000005 9.310200 -2.833170 -106.775000 22.291600 -0.000001 0.000005 2.640210 5.503430 -6.670540 12.994500 -0.242716 -4.980390 88.850700 3.693590 -72.694200 -5.348130 -0.000001 -0.000004 -51.292200 23.300600 29.270200 -24.328900 0.000322 -0.000009 -4.583380 -8.543730 -28.353500 -22.291500 -0.000108 -0.000004 1.698370 5.536260 -8.068460 -2.192480 -6.469440 -0.000000 -174.114000 -1.502490 -7.051010 39.081100 -0.000007 -0.000012 0.000397 -0.000522 37.168500 40.985400 -0.000006 -0.000013 3.656060 3.820670 -82.655300 11.754300 -0.000000 0.000003 -0.035750 -0.242715 -26.535800 -2.192510 6.469440 -0.000001 -173.787000 3.463740 115.135000 -39.081100 -0.002282 -0.040193 -0.005492 -0.003752 112.559000 -40.985400 0.000008 0.000006 2.437590 4.787290 -31.951100 -11.754300 -0.000006 -0.000006 -0.012263 -0.119834 -21.458600
